<?xml version="1.0" standalone="no"?><!DOCTYPE svg PUBLIC "-//W3C//DTD SVG 1.1//EN" "http://www.w3.org/Graphics/SVG/1.1/DTD/svg11.dtd"><svg t="1524561936273" class="icon" style="" viewBox="0 0 1024 1024" version="1.1" xmlns="http://www.w3.org/2000/svg" p-id="1043" xmlns:xlink="http://www.w3.org/1999/xlink" width="128" height="128"><defs><style type="text/css"></style></defs><path d="M256 288H96a32 32 0 0 0-32 32v128a32 32 0 0 0 32 32h160v64H96a32 32 0 0 0-32 32v128a32 32 0 0 0 32 32h160v160h512v96a32 32 0 0 1-32 32H0V0h736a32 32 0 0 1 32 32v96H256v160z" fill="#2394FB" p-id="1044"></path><path d="M320 800V224h704v576H320z m468.32-397.248c0-75.136-63.136-99.2-145.888-99.2h-133.408v402.88H652.8c88.736 0 156.256-37.568 156.256-118.688a91.616 91.616 0 0 0-75.68-95.264v-2.72a91.392 91.392 0 0 0 54.944-87.008z m-142.624 241.728h-56.096v-117.056h56.096c55.52 0 84.928 16.32 84.928 55.52 0 41.92-29.824 61.536-84.928 61.536z m-9.28-176.96h-46.816v-102.4h48c48.448 0 72.384 14.144 72.384 49.536-0.064 32.192-22.368 52.864-73.568 52.864z" fill="#A7D4FD" p-id="1045"></path></svg>